ISO-10303-21;
HEADER;
/* Generated by software containing ST-Developer
 * from STEP Tools, Inc. (www.steptools.com) 
 */
/* OPTION: using custom renumber hook */

FILE_DESCRIPTION(
/* description */ ('STEP AP242 Edition 2',
'CAx-IF Rec.Pracs.---Representation and Presentation of Product Manufa
cturing Information (PMI)---4.0---2014-10-13',
'CAx-IF Rec.Pracs.---3D Tessellated Geometry---0.4---2014-09-14','2;1',
'CAx-IF Rec.Pracs.---User Defined Attributes---1.5---2016-08-15'),
/* implementation_level */ '2;1');

FILE_NAME(
/* name */ 'Part Studio 2',
/* time_stamp */ '2026-06-15T07:11:45Z',
/* author */ (''),
/* organization */ (''),
/* preprocessor_version */ 'ST-DEVELOPER v20',
/* originating_system */ 'ONSHAPE BY PTC INC, 1.216',
/* authorisation */ '  ');

FILE_SCHEMA (('AP242_MANAGED_MODEL_BASED_3D_ENGINEERING_MIM_LF { 1 0 10303 442 3 1 4 }'));
ENDSEC;

DATA;
#10=SHAPE_REPRESENTATION_RELATIONSHIP('','',#47,#11);
#11=ADVANCED_BREP_SHAPE_REPRESENTATION('',(#45),#111);
#12=PLANE('',#49);
#13=PLANE('',#50);
#14=ORIENTED_EDGE('',*,*,#18,.F.);
#15=ORIENTED_EDGE('',*,*,#19,.T.);
#16=ORIENTED_EDGE('',*,*,#18,.T.);
#17=ORIENTED_EDGE('',*,*,#19,.F.);
#18=EDGE_CURVE('',#20,#20,#22,.T.);
#19=EDGE_CURVE('',#21,#21,#23,.T.);
#20=VERTEX_POINT('',#94);
#21=VERTEX_POINT('',#107);
#22=B_SPLINE_CURVE_WITH_KNOTS('',3,(#82,#83,#84,#85,#86,#87,#88,#89,#90,
#91,#92,#93),.UNSPECIFIED.,.T.,.F.,(1,3,1,1,1,1,1,1,1,1,3,1),(-0.0969730317111767,
0.,0.114462563888953,0.229832419785586,0.302103838536175,0.444238178661478,
0.535125508094751,0.690495331835324,0.739940587743282,0.903026968288823,
1.,1.11446256388895),.UNSPECIFIED.);
#23=B_SPLINE_CURVE_WITH_KNOTS('',3,(#95,#96,#97,#98,#99,#100,#101,#102,
#103,#104,#105,#106),.UNSPECIFIED.,.T.,.F.,(1,3,1,1,1,1,1,1,1,1,3,1),(-0.0969730317111767,
0.,0.114462563888953,0.229832419785586,0.302103838536175,0.444238178661478,
0.535125508094751,0.690495331835324,0.739940587743282,0.903026968288823,
1.,1.11446256388895),.UNSPECIFIED.);
#24=EDGE_LOOP('',(#14));
#25=EDGE_LOOP('',(#15));
#26=EDGE_LOOP('',(#16));
#27=EDGE_LOOP('',(#17));
#28=FACE_BOUND('',#24,.T.);
#29=FACE_BOUND('',#25,.T.);
#30=FACE_BOUND('',#26,.T.);
#31=FACE_BOUND('',#27,.T.);
#32=B_SPLINE_SURFACE_WITH_KNOTS('',3,1,((#58,#59),(#60,#61),(#62,#63),(#64,
#65),(#66,#67),(#68,#69),(#70,#71),(#72,#73),(#74,#75),(#76,#77),(#78,#79),
(#80,#81)),.SURF_OF_LINEAR_EXTRUSION.,.T.,.F.,.F.,(1,3,1,1,1,1,1,1,1,1,
3,1),(2,2),(-0.0969730317111767,0.,0.114462563888953,0.229832419785586,
0.302103838536175,0.444238178661478,0.535125508094751,0.690495331835324,
0.739940587743282,0.903026968288823,1.,1.11446256388895),(0.,1.),
 .UNSPECIFIED.);
#33=ADVANCED_FACE('',(#28,#29),#32,.F.);
#34=ADVANCED_FACE('',(#30),#12,.T.);
#35=ADVANCED_FACE('',(#31),#13,.F.);
#36=CLOSED_SHELL('',(#33,#34,#35));
#37=STYLED_ITEM('',(#38),#45);
#38=PRESENTATION_STYLE_ASSIGNMENT((#39));
#39=SURFACE_STYLE_USAGE(.BOTH.,#40);
#40=SURFACE_SIDE_STYLE('',(#41));
#41=SURFACE_STYLE_FILL_AREA(#42);
#42=FILL_AREA_STYLE('',(#43));
#43=FILL_AREA_STYLE_COLOUR('',#44);
#44=COLOUR_RGB('',0.615686274509804,0.811764705882353,0.929411764705882);
#45=MANIFOLD_SOLID_BREP('Part 1',#36);
#46=SHAPE_DEFINITION_REPRESENTATION(#116,#47);
#47=SHAPE_REPRESENTATION('Part 1',(#48),#111);
#48=AXIS2_PLACEMENT_3D('',#57,#51,#52);
#49=AXIS2_PLACEMENT_3D('',#108,#53,#54);
#50=AXIS2_PLACEMENT_3D('',#109,#55,#56);
#51=DIRECTION('',(0.,0.,1.));
#52=DIRECTION('',(1.,0.,0.));
#53=DIRECTION('',(0.,0.,1.));
#54=DIRECTION('',(1.,0.,0.));
#55=DIRECTION('',(0.,0.,1.));
#56=DIRECTION('',(1.,0.,0.));
#57=CARTESIAN_POINT('',(0.,0.,0.));
#58=CARTESIAN_POINT('',(-1.70111763477326,0.606842517852783,0.1));
#59=CARTESIAN_POINT('',(-1.70111763477326,0.606842517852783,0.));
#60=CARTESIAN_POINT('',(-1.98626385129573,0.907397568598257,0.1));
#61=CARTESIAN_POINT('',(-1.98626385129573,0.907397568598257,0.));
#62=CARTESIAN_POINT('',(-2.97741006726234,0.780527696733497,0.1));
#63=CARTESIAN_POINT('',(-2.97741006726234,0.780527696733497,0.));
#64=CARTESIAN_POINT('',(-4.9710988731628,0.780108471473988,0.1));
#65=CARTESIAN_POINT('',(-4.9710988731628,0.780108471473988,0.));
#66=CARTESIAN_POINT('',(-3.8343352803961,0.649037761385437,0.1));
#67=CARTESIAN_POINT('',(-3.8343352803961,0.649037761385437,0.));
#68=CARTESIAN_POINT('',(-1.57417626894182,1.02895133746531,0.1));
#69=CARTESIAN_POINT('',(-1.57417626894182,1.02895133746531,0.));
#70=CARTESIAN_POINT('',(-1.40174018011474,-0.860604774635957,0.1));
#71=CARTESIAN_POINT('',(-1.40174018011474,-0.860604774635957,0.));
#72=CARTESIAN_POINT('',(-4.21021395581981,-0.388638715349152,0.1));
#73=CARTESIAN_POINT('',(-4.21021395581981,-0.388638715349152,0.));
#74=CARTESIAN_POINT('',(-5.07874016412711,-0.363488086925683,0.1));
#75=CARTESIAN_POINT('',(-5.07874016412711,-0.363488086925683,0.));
#76=CARTESIAN_POINT('',(-1.2129618154384,-1.03079459349648,0.1));
#77=CARTESIAN_POINT('',(-1.2129618154384,-1.03079459349648,0.));
#78=CARTESIAN_POINT('',(-1.45954089424189,0.352211366176231,0.1));
#79=CARTESIAN_POINT('',(-1.45954089424189,0.352211366176231,0.));
#80=CARTESIAN_POINT('',(-1.70111763477326,0.606842517852783,0.1));
#81=CARTESIAN_POINT('',(-1.70111763477326,0.606842517852783,0.));
#82=CARTESIAN_POINT('',(-1.70111763477326,0.606842517852783,0.1));
#83=CARTESIAN_POINT('',(-1.98626385129573,0.907397568598257,0.1));
#84=CARTESIAN_POINT('',(-2.97741006726234,0.780527696733497,0.1));
#85=CARTESIAN_POINT('',(-4.9710988731628,0.780108471473988,0.1));
#86=CARTESIAN_POINT('',(-3.8343352803961,0.649037761385437,0.1));
#87=CARTESIAN_POINT('',(-1.57417626894182,1.02895133746531,0.1));
#88=CARTESIAN_POINT('',(-1.40174018011474,-0.860604774635957,0.1));
#89=CARTESIAN_POINT('',(-4.21021395581981,-0.388638715349152,0.1));
#90=CARTESIAN_POINT('',(-5.07874016412711,-0.363488086925683,0.1));
#91=CARTESIAN_POINT('',(-1.2129618154384,-1.03079459349648,0.1));
#92=CARTESIAN_POINT('',(-1.45954089424189,0.352211366176231,0.1));
#93=CARTESIAN_POINT('',(-1.70111763477326,0.606842517852783,0.1));
#94=CARTESIAN_POINT('',(-1.70111763477326,0.606842517852783,0.1));
#95=CARTESIAN_POINT('',(-1.70111763477326,0.606842517852783,0.));
#96=CARTESIAN_POINT('',(-1.98626385129573,0.907397568598257,0.));
#97=CARTESIAN_POINT('',(-2.97741006726234,0.780527696733497,0.));
#98=CARTESIAN_POINT('',(-4.9710988731628,0.780108471473988,0.));
#99=CARTESIAN_POINT('',(-3.8343352803961,0.649037761385437,0.));
#100=CARTESIAN_POINT('',(-1.57417626894182,1.02895133746531,0.));
#101=CARTESIAN_POINT('',(-1.40174018011474,-0.860604774635957,0.));
#102=CARTESIAN_POINT('',(-4.21021395581981,-0.388638715349152,0.));
#103=CARTESIAN_POINT('',(-5.07874016412711,-0.363488086925683,0.));
#104=CARTESIAN_POINT('',(-1.2129618154384,-1.03079459349648,0.));
#105=CARTESIAN_POINT('',(-1.45954089424189,0.352211366176231,0.));
#106=CARTESIAN_POINT('',(-1.70111763477326,0.606842517852783,0.));
#107=CARTESIAN_POINT('',(-1.70111763477326,0.606842517852783,0.));
#108=CARTESIAN_POINT('',(-3.07137215484616,0.11072201208927,0.1));
#109=CARTESIAN_POINT('',(-3.07137215484616,0.11072201208927,0.));
#110=MECHANICAL_DESIGN_GEOMETRIC_PRESENTATION_REPRESENTATION('',(#37),#111);
#111=(
GEOMETRIC_REPRESENTATION_CONTEXT(3)
GLOBAL_UNCERTAINTY_ASSIGNED_CONTEXT((#112))
GLOBAL_UNIT_ASSIGNED_CONTEXT((#115,#114,#113))
REPRESENTATION_CONTEXT('Part 1','TOP_LEVEL_ASSEMBLY_PART')
);
#112=UNCERTAINTY_MEASURE_WITH_UNIT(LENGTH_MEASURE(2.E-5),#115,
'DISTANCE_ACCURACY_VALUE','Maximum Tolerance applied to model');
#113=(
NAMED_UNIT(*)
SI_UNIT($,.STERADIAN.)
SOLID_ANGLE_UNIT()
);
#114=(
NAMED_UNIT(*)
PLANE_ANGLE_UNIT()
SI_UNIT($,.RADIAN.)
);
#115=(
LENGTH_UNIT()
NAMED_UNIT(*)
SI_UNIT($,.METRE.)
);
#116=PRODUCT_DEFINITION_SHAPE('','',#117);
#117=PRODUCT_DEFINITION('','',#119,#118);
#118=PRODUCT_DEFINITION_CONTEXT('',#125,'design');
#119=PRODUCT_DEFINITION_FORMATION_WITH_SPECIFIED_SOURCE('','',#121,
 .NOT_KNOWN.);
#120=PRODUCT_RELATED_PRODUCT_CATEGORY('','',(#121));
#121=PRODUCT('Part 1','Part 1','Part 1',(#123));
#122=PRODUCT_CATEGORY('','');
#123=PRODUCT_CONTEXT('',#125,'mechanical');
#124=APPLICATION_PROTOCOL_DEFINITION('international standard',
'ap242_managed_model_based_3d_engineering',2020,#125);
#125=APPLICATION_CONTEXT('managed model based 3d engineering');
ENDSEC;
END-ISO-10303-21;
