solid box
  facet normal 0 0 0
    outer loop
      vertex -15.000000 -31.000000 -15.000000
      vertex 15.000000 -31.000000 -15.000000
      vertex 15.000000 31.000000 -15.000000
    endloop
  endfacet
  facet normal 0 0 0
    outer loop
      vertex -15.000000 -31.000000 -15.000000
      vertex 15.000000 31.000000 -15.000000
      vertex -15.000000 31.000000 -15.000000
    endloop
  endfacet
  facet normal 0 0 0
    outer loop
      vertex -15.000000 -31.000000 15.000000
      vertex 15.000000 31.000000 15.000000
      vertex 15.000000 -31.000000 15.000000
    endloop
  endfacet
  facet normal 0 0 0
    outer loop
      vertex -15.000000 -31.000000 15.000000
      vertex -15.000000 31.000000 15.000000
      vertex 15.000000 31.000000 15.000000
    endloop
  endfacet
  facet normal 0 0 0
    outer loop
      vertex -15.000000 -31.000000 -15.000000
      vertex -15.000000 -31.000000 15.000000
      vertex 15.000000 -31.000000 15.000000
    endloop
  endfacet
  facet normal 0 0 0
    outer loop
      vertex -15.000000 -31.000000 -15.000000
      vertex 15.000000 -31.000000 15.000000
      vertex 15.000000 -31.000000 -15.000000
    endloop
  endfacet
  facet normal 0 0 0
    outer loop
      vertex 15.000000 -31.000000 -15.000000
      vertex 15.000000 -31.000000 15.000000
      vertex 15.000000 31.000000 15.000000
    endloop
  endfacet
  facet normal 0 0 0
    outer loop
      vertex 15.000000 -31.000000 -15.000000
      vertex 15.000000 31.000000 15.000000
      vertex 15.000000 31.000000 -15.000000
    endloop
  endfacet
  facet normal 0 0 0
    outer loop
      vertex 15.000000 31.000000 -15.000000
      vertex 15.000000 31.000000 15.000000
      vertex -15.000000 31.000000 15.000000
    endloop
  endfacet
  facet normal 0 0 0
    outer loop
      vertex 15.000000 31.000000 -15.000000
      vertex -15.000000 31.000000 15.000000
      vertex -15.000000 31.000000 -15.000000
    endloop
  endfacet
  facet normal 0 0 0
    outer loop
      vertex -15.000000 31.000000 -15.000000
      vertex -15.000000 31.000000 15.000000
      vertex -15.000000 -31.000000 15.000000
    endloop
  endfacet
  facet normal 0 0 0
    outer loop
      vertex -15.000000 31.000000 -15.000000
      vertex -15.000000 -31.000000 15.000000
      vertex -15.000000 -31.000000 -15.000000
    endloop
  endfacet
endsolid box
