solid box
  facet normal 0 0 0
    outer loop
      vertex -260.000000 -22.500000 -150.000000
      vertex 260.000000 -22.500000 -150.000000
      vertex 260.000000 22.500000 -150.000000
    endloop
  endfacet
  facet normal 0 0 0
    outer loop
      vertex -260.000000 -22.500000 -150.000000
      vertex 260.000000 22.500000 -150.000000
      vertex -260.000000 22.500000 -150.000000
    endloop
  endfacet
  facet normal 0 0 0
    outer loop
      vertex -260.000000 -22.500000 150.000000
      vertex 260.000000 22.500000 150.000000
      vertex 260.000000 -22.500000 150.000000
    endloop
  endfacet
  facet normal 0 0 0
    outer loop
      vertex -260.000000 -22.500000 150.000000
      vertex -260.000000 22.500000 150.000000
      vertex 260.000000 22.500000 150.000000
    endloop
  endfacet
  facet normal 0 0 0
    outer loop
      vertex -260.000000 -22.500000 -150.000000
      vertex -260.000000 -22.500000 150.000000
      vertex 260.000000 -22.500000 150.000000
    endloop
  endfacet
  facet normal 0 0 0
    outer loop
      vertex -260.000000 -22.500000 -150.000000
      vertex 260.000000 -22.500000 150.000000
      vertex 260.000000 -22.500000 -150.000000
    endloop
  endfacet
  facet normal 0 0 0
    outer loop
      vertex 260.000000 -22.500000 -150.000000
      vertex 260.000000 -22.500000 150.000000
      vertex 260.000000 22.500000 150.000000
    endloop
  endfacet
  facet normal 0 0 0
    outer loop
      vertex 260.000000 -22.500000 -150.000000
      vertex 260.000000 22.500000 150.000000
      vertex 260.000000 22.500000 -150.000000
    endloop
  endfacet
  facet normal 0 0 0
    outer loop
      vertex 260.000000 22.500000 -150.000000
      vertex 260.000000 22.500000 150.000000
      vertex -260.000000 22.500000 150.000000
    endloop
  endfacet
  facet normal 0 0 0
    outer loop
      vertex 260.000000 22.500000 -150.000000
      vertex -260.000000 22.500000 150.000000
      vertex -260.000000 22.500000 -150.000000
    endloop
  endfacet
  facet normal 0 0 0
    outer loop
      vertex -260.000000 22.500000 -150.000000
      vertex -260.000000 22.500000 150.000000
      vertex -260.000000 -22.500000 150.000000
    endloop
  endfacet
  facet normal 0 0 0
    outer loop
      vertex -260.000000 22.500000 -150.000000
      vertex -260.000000 -22.500000 150.000000
      vertex -260.000000 -22.500000 -150.000000
    endloop
  endfacet
endsolid box
