solid box
  facet normal 0 0 0
    outer loop
      vertex -180.000000 -17.000000 -4.000000
      vertex 180.000000 -17.000000 -4.000000
      vertex 180.000000 17.000000 -4.000000
    endloop
  endfacet
  facet normal 0 0 0
    outer loop
      vertex -180.000000 -17.000000 -4.000000
      vertex 180.000000 17.000000 -4.000000
      vertex -180.000000 17.000000 -4.000000
    endloop
  endfacet
  facet normal 0 0 0
    outer loop
      vertex -180.000000 -17.000000 4.000000
      vertex 180.000000 17.000000 4.000000
      vertex 180.000000 -17.000000 4.000000
    endloop
  endfacet
  facet normal 0 0 0
    outer loop
      vertex -180.000000 -17.000000 4.000000
      vertex -180.000000 17.000000 4.000000
      vertex 180.000000 17.000000 4.000000
    endloop
  endfacet
  facet normal 0 0 0
    outer loop
      vertex -180.000000 -17.000000 -4.000000
      vertex -180.000000 -17.000000 4.000000
      vertex 180.000000 -17.000000 4.000000
    endloop
  endfacet
  facet normal 0 0 0
    outer loop
      vertex -180.000000 -17.000000 -4.000000
      vertex 180.000000 -17.000000 4.000000
      vertex 180.000000 -17.000000 -4.000000
    endloop
  endfacet
  facet normal 0 0 0
    outer loop
      vertex 180.000000 -17.000000 -4.000000
      vertex 180.000000 -17.000000 4.000000
      vertex 180.000000 17.000000 4.000000
    endloop
  endfacet
  facet normal 0 0 0
    outer loop
      vertex 180.000000 -17.000000 -4.000000
      vertex 180.000000 17.000000 4.000000
      vertex 180.000000 17.000000 -4.000000
    endloop
  endfacet
  facet normal 0 0 0
    outer loop
      vertex 180.000000 17.000000 -4.000000
      vertex 180.000000 17.000000 4.000000
      vertex -180.000000 17.000000 4.000000
    endloop
  endfacet
  facet normal 0 0 0
    outer loop
      vertex 180.000000 17.000000 -4.000000
      vertex -180.000000 17.000000 4.000000
      vertex -180.000000 17.000000 -4.000000
    endloop
  endfacet
  facet normal 0 0 0
    outer loop
      vertex -180.000000 17.000000 -4.000000
      vertex -180.000000 17.000000 4.000000
      vertex -180.000000 -17.000000 4.000000
    endloop
  endfacet
  facet normal 0 0 0
    outer loop
      vertex -180.000000 17.000000 -4.000000
      vertex -180.000000 -17.000000 4.000000
      vertex -180.000000 -17.000000 -4.000000
    endloop
  endfacet
endsolid box
