solid box
  facet normal 0 0 0
    outer loop
      vertex -19.000000 -19.000000 -110.000000
      vertex 19.000000 -19.000000 -110.000000
      vertex 19.000000 19.000000 -110.000000
    endloop
  endfacet
  facet normal 0 0 0
    outer loop
      vertex -19.000000 -19.000000 -110.000000
      vertex 19.000000 19.000000 -110.000000
      vertex -19.000000 19.000000 -110.000000
    endloop
  endfacet
  facet normal 0 0 0
    outer loop
      vertex -19.000000 -19.000000 110.000000
      vertex 19.000000 19.000000 110.000000
      vertex 19.000000 -19.000000 110.000000
    endloop
  endfacet
  facet normal 0 0 0
    outer loop
      vertex -19.000000 -19.000000 110.000000
      vertex -19.000000 19.000000 110.000000
      vertex 19.000000 19.000000 110.000000
    endloop
  endfacet
  facet normal 0 0 0
    outer loop
      vertex -19.000000 -19.000000 -110.000000
      vertex -19.000000 -19.000000 110.000000
      vertex 19.000000 -19.000000 110.000000
    endloop
  endfacet
  facet normal 0 0 0
    outer loop
      vertex -19.000000 -19.000000 -110.000000
      vertex 19.000000 -19.000000 110.000000
      vertex 19.000000 -19.000000 -110.000000
    endloop
  endfacet
  facet normal 0 0 0
    outer loop
      vertex 19.000000 -19.000000 -110.000000
      vertex 19.000000 -19.000000 110.000000
      vertex 19.000000 19.000000 110.000000
    endloop
  endfacet
  facet normal 0 0 0
    outer loop
      vertex 19.000000 -19.000000 -110.000000
      vertex 19.000000 19.000000 110.000000
      vertex 19.000000 19.000000 -110.000000
    endloop
  endfacet
  facet normal 0 0 0
    outer loop
      vertex 19.000000 19.000000 -110.000000
      vertex 19.000000 19.000000 110.000000
      vertex -19.000000 19.000000 110.000000
    endloop
  endfacet
  facet normal 0 0 0
    outer loop
      vertex 19.000000 19.000000 -110.000000
      vertex -19.000000 19.000000 110.000000
      vertex -19.000000 19.000000 -110.000000
    endloop
  endfacet
  facet normal 0 0 0
    outer loop
      vertex -19.000000 19.000000 -110.000000
      vertex -19.000000 19.000000 110.000000
      vertex -19.000000 -19.000000 110.000000
    endloop
  endfacet
  facet normal 0 0 0
    outer loop
      vertex -19.000000 19.000000 -110.000000
      vertex -19.000000 -19.000000 110.000000
      vertex -19.000000 -19.000000 -110.000000
    endloop
  endfacet
endsolid box
