solid box
  facet normal 0 0 0
    outer loop
      vertex -9.000000 -9.000000 -75.000000
      vertex 9.000000 -9.000000 -75.000000
      vertex 9.000000 9.000000 -75.000000
    endloop
  endfacet
  facet normal 0 0 0
    outer loop
      vertex -9.000000 -9.000000 -75.000000
      vertex 9.000000 9.000000 -75.000000
      vertex -9.000000 9.000000 -75.000000
    endloop
  endfacet
  facet normal 0 0 0
    outer loop
      vertex -9.000000 -9.000000 75.000000
      vertex 9.000000 9.000000 75.000000
      vertex 9.000000 -9.000000 75.000000
    endloop
  endfacet
  facet normal 0 0 0
    outer loop
      vertex -9.000000 -9.000000 75.000000
      vertex -9.000000 9.000000 75.000000
      vertex 9.000000 9.000000 75.000000
    endloop
  endfacet
  facet normal 0 0 0
    outer loop
      vertex -9.000000 -9.000000 -75.000000
      vertex -9.000000 -9.000000 75.000000
      vertex 9.000000 -9.000000 75.000000
    endloop
  endfacet
  facet normal 0 0 0
    outer loop
      vertex -9.000000 -9.000000 -75.000000
      vertex 9.000000 -9.000000 75.000000
      vertex 9.000000 -9.000000 -75.000000
    endloop
  endfacet
  facet normal 0 0 0
    outer loop
      vertex 9.000000 -9.000000 -75.000000
      vertex 9.000000 -9.000000 75.000000
      vertex 9.000000 9.000000 75.000000
    endloop
  endfacet
  facet normal 0 0 0
    outer loop
      vertex 9.000000 -9.000000 -75.000000
      vertex 9.000000 9.000000 75.000000
      vertex 9.000000 9.000000 -75.000000
    endloop
  endfacet
  facet normal 0 0 0
    outer loop
      vertex 9.000000 9.000000 -75.000000
      vertex 9.000000 9.000000 75.000000
      vertex -9.000000 9.000000 75.000000
    endloop
  endfacet
  facet normal 0 0 0
    outer loop
      vertex 9.000000 9.000000 -75.000000
      vertex -9.000000 9.000000 75.000000
      vertex -9.000000 9.000000 -75.000000
    endloop
  endfacet
  facet normal 0 0 0
    outer loop
      vertex -9.000000 9.000000 -75.000000
      vertex -9.000000 9.000000 75.000000
      vertex -9.000000 -9.000000 75.000000
    endloop
  endfacet
  facet normal 0 0 0
    outer loop
      vertex -9.000000 9.000000 -75.000000
      vertex -9.000000 -9.000000 75.000000
      vertex -9.000000 -9.000000 -75.000000
    endloop
  endfacet
endsolid box
