solid box
  facet normal 0 0 0
    outer loop
      vertex -77.500000 -47.500000 -47.500000
      vertex 77.500000 -47.500000 -47.500000
      vertex 77.500000 47.500000 -47.500000
    endloop
  endfacet
  facet normal 0 0 0
    outer loop
      vertex -77.500000 -47.500000 -47.500000
      vertex 77.500000 47.500000 -47.500000
      vertex -77.500000 47.500000 -47.500000
    endloop
  endfacet
  facet normal 0 0 0
    outer loop
      vertex -77.500000 -47.500000 47.500000
      vertex 77.500000 47.500000 47.500000
      vertex 77.500000 -47.500000 47.500000
    endloop
  endfacet
  facet normal 0 0 0
    outer loop
      vertex -77.500000 -47.500000 47.500000
      vertex -77.500000 47.500000 47.500000
      vertex 77.500000 47.500000 47.500000
    endloop
  endfacet
  facet normal 0 0 0
    outer loop
      vertex -77.500000 -47.500000 -47.500000
      vertex -77.500000 -47.500000 47.500000
      vertex 77.500000 -47.500000 47.500000
    endloop
  endfacet
  facet normal 0 0 0
    outer loop
      vertex -77.500000 -47.500000 -47.500000
      vertex 77.500000 -47.500000 47.500000
      vertex 77.500000 -47.500000 -47.500000
    endloop
  endfacet
  facet normal 0 0 0
    outer loop
      vertex 77.500000 -47.500000 -47.500000
      vertex 77.500000 -47.500000 47.500000
      vertex 77.500000 47.500000 47.500000
    endloop
  endfacet
  facet normal 0 0 0
    outer loop
      vertex 77.500000 -47.500000 -47.500000
      vertex 77.500000 47.500000 47.500000
      vertex 77.500000 47.500000 -47.500000
    endloop
  endfacet
  facet normal 0 0 0
    outer loop
      vertex 77.500000 47.500000 -47.500000
      vertex 77.500000 47.500000 47.500000
      vertex -77.500000 47.500000 47.500000
    endloop
  endfacet
  facet normal 0 0 0
    outer loop
      vertex 77.500000 47.500000 -47.500000
      vertex -77.500000 47.500000 47.500000
      vertex -77.500000 47.500000 -47.500000
    endloop
  endfacet
  facet normal 0 0 0
    outer loop
      vertex -77.500000 47.500000 -47.500000
      vertex -77.500000 47.500000 47.500000
      vertex -77.500000 -47.500000 47.500000
    endloop
  endfacet
  facet normal 0 0 0
    outer loop
      vertex -77.500000 47.500000 -47.500000
      vertex -77.500000 -47.500000 47.500000
      vertex -77.500000 -47.500000 -47.500000
    endloop
  endfacet
endsolid box
