solid box
  facet normal 0 0 0
    outer loop
      vertex -21.000000 -15.000000 -14.000000
      vertex 21.000000 -15.000000 -14.000000
      vertex 21.000000 15.000000 -14.000000
    endloop
  endfacet
  facet normal 0 0 0
    outer loop
      vertex -21.000000 -15.000000 -14.000000
      vertex 21.000000 15.000000 -14.000000
      vertex -21.000000 15.000000 -14.000000
    endloop
  endfacet
  facet normal 0 0 0
    outer loop
      vertex -21.000000 -15.000000 14.000000
      vertex 21.000000 15.000000 14.000000
      vertex 21.000000 -15.000000 14.000000
    endloop
  endfacet
  facet normal 0 0 0
    outer loop
      vertex -21.000000 -15.000000 14.000000
      vertex -21.000000 15.000000 14.000000
      vertex 21.000000 15.000000 14.000000
    endloop
  endfacet
  facet normal 0 0 0
    outer loop
      vertex -21.000000 -15.000000 -14.000000
      vertex -21.000000 -15.000000 14.000000
      vertex 21.000000 -15.000000 14.000000
    endloop
  endfacet
  facet normal 0 0 0
    outer loop
      vertex -21.000000 -15.000000 -14.000000
      vertex 21.000000 -15.000000 14.000000
      vertex 21.000000 -15.000000 -14.000000
    endloop
  endfacet
  facet normal 0 0 0
    outer loop
      vertex 21.000000 -15.000000 -14.000000
      vertex 21.000000 -15.000000 14.000000
      vertex 21.000000 15.000000 14.000000
    endloop
  endfacet
  facet normal 0 0 0
    outer loop
      vertex 21.000000 -15.000000 -14.000000
      vertex 21.000000 15.000000 14.000000
      vertex 21.000000 15.000000 -14.000000
    endloop
  endfacet
  facet normal 0 0 0
    outer loop
      vertex 21.000000 15.000000 -14.000000
      vertex 21.000000 15.000000 14.000000
      vertex -21.000000 15.000000 14.000000
    endloop
  endfacet
  facet normal 0 0 0
    outer loop
      vertex 21.000000 15.000000 -14.000000
      vertex -21.000000 15.000000 14.000000
      vertex -21.000000 15.000000 -14.000000
    endloop
  endfacet
  facet normal 0 0 0
    outer loop
      vertex -21.000000 15.000000 -14.000000
      vertex -21.000000 15.000000 14.000000
      vertex -21.000000 -15.000000 14.000000
    endloop
  endfacet
  facet normal 0 0 0
    outer loop
      vertex -21.000000 15.000000 -14.000000
      vertex -21.000000 -15.000000 14.000000
      vertex -21.000000 -15.000000 -14.000000
    endloop
  endfacet
endsolid box
