solid box
  facet normal 0 0 0
    outer loop
      vertex -725.000000 -45.000000 -260.000000
      vertex 725.000000 -45.000000 -260.000000
      vertex 725.000000 45.000000 -260.000000
    endloop
  endfacet
  facet normal 0 0 0
    outer loop
      vertex -725.000000 -45.000000 -260.000000
      vertex 725.000000 45.000000 -260.000000
      vertex -725.000000 45.000000 -260.000000
    endloop
  endfacet
  facet normal 0 0 0
    outer loop
      vertex -725.000000 -45.000000 260.000000
      vertex 725.000000 45.000000 260.000000
      vertex 725.000000 -45.000000 260.000000
    endloop
  endfacet
  facet normal 0 0 0
    outer loop
      vertex -725.000000 -45.000000 260.000000
      vertex -725.000000 45.000000 260.000000
      vertex 725.000000 45.000000 260.000000
    endloop
  endfacet
  facet normal 0 0 0
    outer loop
      vertex -725.000000 -45.000000 -260.000000
      vertex -725.000000 -45.000000 260.000000
      vertex 725.000000 -45.000000 260.000000
    endloop
  endfacet
  facet normal 0 0 0
    outer loop
      vertex -725.000000 -45.000000 -260.000000
      vertex 725.000000 -45.000000 260.000000
      vertex 725.000000 -45.000000 -260.000000
    endloop
  endfacet
  facet normal 0 0 0
    outer loop
      vertex 725.000000 -45.000000 -260.000000
      vertex 725.000000 -45.000000 260.000000
      vertex 725.000000 45.000000 260.000000
    endloop
  endfacet
  facet normal 0 0 0
    outer loop
      vertex 725.000000 -45.000000 -260.000000
      vertex 725.000000 45.000000 260.000000
      vertex 725.000000 45.000000 -260.000000
    endloop
  endfacet
  facet normal 0 0 0
    outer loop
      vertex 725.000000 45.000000 -260.000000
      vertex 725.000000 45.000000 260.000000
      vertex -725.000000 45.000000 260.000000
    endloop
  endfacet
  facet normal 0 0 0
    outer loop
      vertex 725.000000 45.000000 -260.000000
      vertex -725.000000 45.000000 260.000000
      vertex -725.000000 45.000000 -260.000000
    endloop
  endfacet
  facet normal 0 0 0
    outer loop
      vertex -725.000000 45.000000 -260.000000
      vertex -725.000000 45.000000 260.000000
      vertex -725.000000 -45.000000 260.000000
    endloop
  endfacet
  facet normal 0 0 0
    outer loop
      vertex -725.000000 45.000000 -260.000000
      vertex -725.000000 -45.000000 260.000000
      vertex -725.000000 -45.000000 -260.000000
    endloop
  endfacet
endsolid box
