solid box
  facet normal 0 0 0
    outer loop
      vertex -17.000000 -17.500000 -72.000000
      vertex 17.000000 -17.500000 -72.000000
      vertex 17.000000 17.500000 -72.000000
    endloop
  endfacet
  facet normal 0 0 0
    outer loop
      vertex -17.000000 -17.500000 -72.000000
      vertex 17.000000 17.500000 -72.000000
      vertex -17.000000 17.500000 -72.000000
    endloop
  endfacet
  facet normal 0 0 0
    outer loop
      vertex -17.000000 -17.500000 72.000000
      vertex 17.000000 17.500000 72.000000
      vertex 17.000000 -17.500000 72.000000
    endloop
  endfacet
  facet normal 0 0 0
    outer loop
      vertex -17.000000 -17.500000 72.000000
      vertex -17.000000 17.500000 72.000000
      vertex 17.000000 17.500000 72.000000
    endloop
  endfacet
  facet normal 0 0 0
    outer loop
      vertex -17.000000 -17.500000 -72.000000
      vertex -17.000000 -17.500000 72.000000
      vertex 17.000000 -17.500000 72.000000
    endloop
  endfacet
  facet normal 0 0 0
    outer loop
      vertex -17.000000 -17.500000 -72.000000
      vertex 17.000000 -17.500000 72.000000
      vertex 17.000000 -17.500000 -72.000000
    endloop
  endfacet
  facet normal 0 0 0
    outer loop
      vertex 17.000000 -17.500000 -72.000000
      vertex 17.000000 -17.500000 72.000000
      vertex 17.000000 17.500000 72.000000
    endloop
  endfacet
  facet normal 0 0 0
    outer loop
      vertex 17.000000 -17.500000 -72.000000
      vertex 17.000000 17.500000 72.000000
      vertex 17.000000 17.500000 -72.000000
    endloop
  endfacet
  facet normal 0 0 0
    outer loop
      vertex 17.000000 17.500000 -72.000000
      vertex 17.000000 17.500000 72.000000
      vertex -17.000000 17.500000 72.000000
    endloop
  endfacet
  facet normal 0 0 0
    outer loop
      vertex 17.000000 17.500000 -72.000000
      vertex -17.000000 17.500000 72.000000
      vertex -17.000000 17.500000 -72.000000
    endloop
  endfacet
  facet normal 0 0 0
    outer loop
      vertex -17.000000 17.500000 -72.000000
      vertex -17.000000 17.500000 72.000000
      vertex -17.000000 -17.500000 72.000000
    endloop
  endfacet
  facet normal 0 0 0
    outer loop
      vertex -17.000000 17.500000 -72.000000
      vertex -17.000000 -17.500000 72.000000
      vertex -17.000000 -17.500000 -72.000000
    endloop
  endfacet
endsolid box
