solid box
  facet normal 0 0 0
    outer loop
      vertex -325.614803 -57.500000 -5.000000
      vertex 325.614803 -57.500000 -5.000000
      vertex 325.614803 57.500000 -5.000000
    endloop
  endfacet
  facet normal 0 0 0
    outer loop
      vertex -325.614803 -57.500000 -5.000000
      vertex 325.614803 57.500000 -5.000000
      vertex -325.614803 57.500000 -5.000000
    endloop
  endfacet
  facet normal 0 0 0
    outer loop
      vertex -325.614803 -57.500000 5.000000
      vertex 325.614803 57.500000 5.000000
      vertex 325.614803 -57.500000 5.000000
    endloop
  endfacet
  facet normal 0 0 0
    outer loop
      vertex -325.614803 -57.500000 5.000000
      vertex -325.614803 57.500000 5.000000
      vertex 325.614803 57.500000 5.000000
    endloop
  endfacet
  facet normal 0 0 0
    outer loop
      vertex -325.614803 -57.500000 -5.000000
      vertex -325.614803 -57.500000 5.000000
      vertex 325.614803 -57.500000 5.000000
    endloop
  endfacet
  facet normal 0 0 0
    outer loop
      vertex -325.614803 -57.500000 -5.000000
      vertex 325.614803 -57.500000 5.000000
      vertex 325.614803 -57.500000 -5.000000
    endloop
  endfacet
  facet normal 0 0 0
    outer loop
      vertex 325.614803 -57.500000 -5.000000
      vertex 325.614803 -57.500000 5.000000
      vertex 325.614803 57.500000 5.000000
    endloop
  endfacet
  facet normal 0 0 0
    outer loop
      vertex 325.614803 -57.500000 -5.000000
      vertex 325.614803 57.500000 5.000000
      vertex 325.614803 57.500000 -5.000000
    endloop
  endfacet
  facet normal 0 0 0
    outer loop
      vertex 325.614803 57.500000 -5.000000
      vertex 325.614803 57.500000 5.000000
      vertex -325.614803 57.500000 5.000000
    endloop
  endfacet
  facet normal 0 0 0
    outer loop
      vertex 325.614803 57.500000 -5.000000
      vertex -325.614803 57.500000 5.000000
      vertex -325.614803 57.500000 -5.000000
    endloop
  endfacet
  facet normal 0 0 0
    outer loop
      vertex -325.614803 57.500000 -5.000000
      vertex -325.614803 57.500000 5.000000
      vertex -325.614803 -57.500000 5.000000
    endloop
  endfacet
  facet normal 0 0 0
    outer loop
      vertex -325.614803 57.500000 -5.000000
      vertex -325.614803 -57.500000 5.000000
      vertex -325.614803 -57.500000 -5.000000
    endloop
  endfacet
endsolid box
