solid box
  facet normal 0 0 0
    outer loop
      vertex -1500.000000 -32.500000 -4.500000
      vertex 1500.000000 -32.500000 -4.500000
      vertex 1500.000000 32.500000 -4.500000
    endloop
  endfacet
  facet normal 0 0 0
    outer loop
      vertex -1500.000000 -32.500000 -4.500000
      vertex 1500.000000 32.500000 -4.500000
      vertex -1500.000000 32.500000 -4.500000
    endloop
  endfacet
  facet normal 0 0 0
    outer loop
      vertex -1500.000000 -32.500000 4.500000
      vertex 1500.000000 32.500000 4.500000
      vertex 1500.000000 -32.500000 4.500000
    endloop
  endfacet
  facet normal 0 0 0
    outer loop
      vertex -1500.000000 -32.500000 4.500000
      vertex -1500.000000 32.500000 4.500000
      vertex 1500.000000 32.500000 4.500000
    endloop
  endfacet
  facet normal 0 0 0
    outer loop
      vertex -1500.000000 -32.500000 -4.500000
      vertex -1500.000000 -32.500000 4.500000
      vertex 1500.000000 -32.500000 4.500000
    endloop
  endfacet
  facet normal 0 0 0
    outer loop
      vertex -1500.000000 -32.500000 -4.500000
      vertex 1500.000000 -32.500000 4.500000
      vertex 1500.000000 -32.500000 -4.500000
    endloop
  endfacet
  facet normal 0 0 0
    outer loop
      vertex 1500.000000 -32.500000 -4.500000
      vertex 1500.000000 -32.500000 4.500000
      vertex 1500.000000 32.500000 4.500000
    endloop
  endfacet
  facet normal 0 0 0
    outer loop
      vertex 1500.000000 -32.500000 -4.500000
      vertex 1500.000000 32.500000 4.500000
      vertex 1500.000000 32.500000 -4.500000
    endloop
  endfacet
  facet normal 0 0 0
    outer loop
      vertex 1500.000000 32.500000 -4.500000
      vertex 1500.000000 32.500000 4.500000
      vertex -1500.000000 32.500000 4.500000
    endloop
  endfacet
  facet normal 0 0 0
    outer loop
      vertex 1500.000000 32.500000 -4.500000
      vertex -1500.000000 32.500000 4.500000
      vertex -1500.000000 32.500000 -4.500000
    endloop
  endfacet
  facet normal 0 0 0
    outer loop
      vertex -1500.000000 32.500000 -4.500000
      vertex -1500.000000 32.500000 4.500000
      vertex -1500.000000 -32.500000 4.500000
    endloop
  endfacet
  facet normal 0 0 0
    outer loop
      vertex -1500.000000 32.500000 -4.500000
      vertex -1500.000000 -32.500000 4.500000
      vertex -1500.000000 -32.500000 -4.500000
    endloop
  endfacet
endsolid box
