solid box
  facet normal 0 0 0
    outer loop
      vertex -105.000000 -105.000000 -6.000000
      vertex 105.000000 -105.000000 -6.000000
      vertex 105.000000 105.000000 -6.000000
    endloop
  endfacet
  facet normal 0 0 0
    outer loop
      vertex -105.000000 -105.000000 -6.000000
      vertex 105.000000 105.000000 -6.000000
      vertex -105.000000 105.000000 -6.000000
    endloop
  endfacet
  facet normal 0 0 0
    outer loop
      vertex -105.000000 -105.000000 6.000000
      vertex 105.000000 105.000000 6.000000
      vertex 105.000000 -105.000000 6.000000
    endloop
  endfacet
  facet normal 0 0 0
    outer loop
      vertex -105.000000 -105.000000 6.000000
      vertex -105.000000 105.000000 6.000000
      vertex 105.000000 105.000000 6.000000
    endloop
  endfacet
  facet normal 0 0 0
    outer loop
      vertex -105.000000 -105.000000 -6.000000
      vertex -105.000000 -105.000000 6.000000
      vertex 105.000000 -105.000000 6.000000
    endloop
  endfacet
  facet normal 0 0 0
    outer loop
      vertex -105.000000 -105.000000 -6.000000
      vertex 105.000000 -105.000000 6.000000
      vertex 105.000000 -105.000000 -6.000000
    endloop
  endfacet
  facet normal 0 0 0
    outer loop
      vertex 105.000000 -105.000000 -6.000000
      vertex 105.000000 -105.000000 6.000000
      vertex 105.000000 105.000000 6.000000
    endloop
  endfacet
  facet normal 0 0 0
    outer loop
      vertex 105.000000 -105.000000 -6.000000
      vertex 105.000000 105.000000 6.000000
      vertex 105.000000 105.000000 -6.000000
    endloop
  endfacet
  facet normal 0 0 0
    outer loop
      vertex 105.000000 105.000000 -6.000000
      vertex 105.000000 105.000000 6.000000
      vertex -105.000000 105.000000 6.000000
    endloop
  endfacet
  facet normal 0 0 0
    outer loop
      vertex 105.000000 105.000000 -6.000000
      vertex -105.000000 105.000000 6.000000
      vertex -105.000000 105.000000 -6.000000
    endloop
  endfacet
  facet normal 0 0 0
    outer loop
      vertex -105.000000 105.000000 -6.000000
      vertex -105.000000 105.000000 6.000000
      vertex -105.000000 -105.000000 6.000000
    endloop
  endfacet
  facet normal 0 0 0
    outer loop
      vertex -105.000000 105.000000 -6.000000
      vertex -105.000000 -105.000000 6.000000
      vertex -105.000000 -105.000000 -6.000000
    endloop
  endfacet
endsolid box
