solid box
  facet normal 0 0 0
    outer loop
      vertex -1645.189959 -57.500000 -5.000000
      vertex 1645.189959 -57.500000 -5.000000
      vertex 1645.189959 57.500000 -5.000000
    endloop
  endfacet
  facet normal 0 0 0
    outer loop
      vertex -1645.189959 -57.500000 -5.000000
      vertex 1645.189959 57.500000 -5.000000
      vertex -1645.189959 57.500000 -5.000000
    endloop
  endfacet
  facet normal 0 0 0
    outer loop
      vertex -1645.189959 -57.500000 5.000000
      vertex 1645.189959 57.500000 5.000000
      vertex 1645.189959 -57.500000 5.000000
    endloop
  endfacet
  facet normal 0 0 0
    outer loop
      vertex -1645.189959 -57.500000 5.000000
      vertex -1645.189959 57.500000 5.000000
      vertex 1645.189959 57.500000 5.000000
    endloop
  endfacet
  facet normal 0 0 0
    outer loop
      vertex -1645.189959 -57.500000 -5.000000
      vertex -1645.189959 -57.500000 5.000000
      vertex 1645.189959 -57.500000 5.000000
    endloop
  endfacet
  facet normal 0 0 0
    outer loop
      vertex -1645.189959 -57.500000 -5.000000
      vertex 1645.189959 -57.500000 5.000000
      vertex 1645.189959 -57.500000 -5.000000
    endloop
  endfacet
  facet normal 0 0 0
    outer loop
      vertex 1645.189959 -57.500000 -5.000000
      vertex 1645.189959 -57.500000 5.000000
      vertex 1645.189959 57.500000 5.000000
    endloop
  endfacet
  facet normal 0 0 0
    outer loop
      vertex 1645.189959 -57.500000 -5.000000
      vertex 1645.189959 57.500000 5.000000
      vertex 1645.189959 57.500000 -5.000000
    endloop
  endfacet
  facet normal 0 0 0
    outer loop
      vertex 1645.189959 57.500000 -5.000000
      vertex 1645.189959 57.500000 5.000000
      vertex -1645.189959 57.500000 5.000000
    endloop
  endfacet
  facet normal 0 0 0
    outer loop
      vertex 1645.189959 57.500000 -5.000000
      vertex -1645.189959 57.500000 5.000000
      vertex -1645.189959 57.500000 -5.000000
    endloop
  endfacet
  facet normal 0 0 0
    outer loop
      vertex -1645.189959 57.500000 -5.000000
      vertex -1645.189959 57.500000 5.000000
      vertex -1645.189959 -57.500000 5.000000
    endloop
  endfacet
  facet normal 0 0 0
    outer loop
      vertex -1645.189959 57.500000 -5.000000
      vertex -1645.189959 -57.500000 5.000000
      vertex -1645.189959 -57.500000 -5.000000
    endloop
  endfacet
endsolid box
