solid box
  facet normal 0 0 0
    outer loop
      vertex -14.000000 -22.500000 -22.500000
      vertex 14.000000 -22.500000 -22.500000
      vertex 14.000000 22.500000 -22.500000
    endloop
  endfacet
  facet normal 0 0 0
    outer loop
      vertex -14.000000 -22.500000 -22.500000
      vertex 14.000000 22.500000 -22.500000
      vertex -14.000000 22.500000 -22.500000
    endloop
  endfacet
  facet normal 0 0 0
    outer loop
      vertex -14.000000 -22.500000 22.500000
      vertex 14.000000 22.500000 22.500000
      vertex 14.000000 -22.500000 22.500000
    endloop
  endfacet
  facet normal 0 0 0
    outer loop
      vertex -14.000000 -22.500000 22.500000
      vertex -14.000000 22.500000 22.500000
      vertex 14.000000 22.500000 22.500000
    endloop
  endfacet
  facet normal 0 0 0
    outer loop
      vertex -14.000000 -22.500000 -22.500000
      vertex -14.000000 -22.500000 22.500000
      vertex 14.000000 -22.500000 22.500000
    endloop
  endfacet
  facet normal 0 0 0
    outer loop
      vertex -14.000000 -22.500000 -22.500000
      vertex 14.000000 -22.500000 22.500000
      vertex 14.000000 -22.500000 -22.500000
    endloop
  endfacet
  facet normal 0 0 0
    outer loop
      vertex 14.000000 -22.500000 -22.500000
      vertex 14.000000 -22.500000 22.500000
      vertex 14.000000 22.500000 22.500000
    endloop
  endfacet
  facet normal 0 0 0
    outer loop
      vertex 14.000000 -22.500000 -22.500000
      vertex 14.000000 22.500000 22.500000
      vertex 14.000000 22.500000 -22.500000
    endloop
  endfacet
  facet normal 0 0 0
    outer loop
      vertex 14.000000 22.500000 -22.500000
      vertex 14.000000 22.500000 22.500000
      vertex -14.000000 22.500000 22.500000
    endloop
  endfacet
  facet normal 0 0 0
    outer loop
      vertex 14.000000 22.500000 -22.500000
      vertex -14.000000 22.500000 22.500000
      vertex -14.000000 22.500000 -22.500000
    endloop
  endfacet
  facet normal 0 0 0
    outer loop
      vertex -14.000000 22.500000 -22.500000
      vertex -14.000000 22.500000 22.500000
      vertex -14.000000 -22.500000 22.500000
    endloop
  endfacet
  facet normal 0 0 0
    outer loop
      vertex -14.000000 22.500000 -22.500000
      vertex -14.000000 -22.500000 22.500000
      vertex -14.000000 -22.500000 -22.500000
    endloop
  endfacet
endsolid box
