solid box
  facet normal 0 0 0
    outer loop
      vertex -47.500000 -47.500000 -9.000000
      vertex 47.500000 -47.500000 -9.000000
      vertex 47.500000 47.500000 -9.000000
    endloop
  endfacet
  facet normal 0 0 0
    outer loop
      vertex -47.500000 -47.500000 -9.000000
      vertex 47.500000 47.500000 -9.000000
      vertex -47.500000 47.500000 -9.000000
    endloop
  endfacet
  facet normal 0 0 0
    outer loop
      vertex -47.500000 -47.500000 9.000000
      vertex 47.500000 47.500000 9.000000
      vertex 47.500000 -47.500000 9.000000
    endloop
  endfacet
  facet normal 0 0 0
    outer loop
      vertex -47.500000 -47.500000 9.000000
      vertex -47.500000 47.500000 9.000000
      vertex 47.500000 47.500000 9.000000
    endloop
  endfacet
  facet normal 0 0 0
    outer loop
      vertex -47.500000 -47.500000 -9.000000
      vertex -47.500000 -47.500000 9.000000
      vertex 47.500000 -47.500000 9.000000
    endloop
  endfacet
  facet normal 0 0 0
    outer loop
      vertex -47.500000 -47.500000 -9.000000
      vertex 47.500000 -47.500000 9.000000
      vertex 47.500000 -47.500000 -9.000000
    endloop
  endfacet
  facet normal 0 0 0
    outer loop
      vertex 47.500000 -47.500000 -9.000000
      vertex 47.500000 -47.500000 9.000000
      vertex 47.500000 47.500000 9.000000
    endloop
  endfacet
  facet normal 0 0 0
    outer loop
      vertex 47.500000 -47.500000 -9.000000
      vertex 47.500000 47.500000 9.000000
      vertex 47.500000 47.500000 -9.000000
    endloop
  endfacet
  facet normal 0 0 0
    outer loop
      vertex 47.500000 47.500000 -9.000000
      vertex 47.500000 47.500000 9.000000
      vertex -47.500000 47.500000 9.000000
    endloop
  endfacet
  facet normal 0 0 0
    outer loop
      vertex 47.500000 47.500000 -9.000000
      vertex -47.500000 47.500000 9.000000
      vertex -47.500000 47.500000 -9.000000
    endloop
  endfacet
  facet normal 0 0 0
    outer loop
      vertex -47.500000 47.500000 -9.000000
      vertex -47.500000 47.500000 9.000000
      vertex -47.500000 -47.500000 9.000000
    endloop
  endfacet
  facet normal 0 0 0
    outer loop
      vertex -47.500000 47.500000 -9.000000
      vertex -47.500000 -47.500000 9.000000
      vertex -47.500000 -47.500000 -9.000000
    endloop
  endfacet
endsolid box
