solid box
  facet normal 0 0 0
    outer loop
      vertex -1000.000000 -27.500000 -4.000000
      vertex 1000.000000 -27.500000 -4.000000
      vertex 1000.000000 27.500000 -4.000000
    endloop
  endfacet
  facet normal 0 0 0
    outer loop
      vertex -1000.000000 -27.500000 -4.000000
      vertex 1000.000000 27.500000 -4.000000
      vertex -1000.000000 27.500000 -4.000000
    endloop
  endfacet
  facet normal 0 0 0
    outer loop
      vertex -1000.000000 -27.500000 4.000000
      vertex 1000.000000 27.500000 4.000000
      vertex 1000.000000 -27.500000 4.000000
    endloop
  endfacet
  facet normal 0 0 0
    outer loop
      vertex -1000.000000 -27.500000 4.000000
      vertex -1000.000000 27.500000 4.000000
      vertex 1000.000000 27.500000 4.000000
    endloop
  endfacet
  facet normal 0 0 0
    outer loop
      vertex -1000.000000 -27.500000 -4.000000
      vertex -1000.000000 -27.500000 4.000000
      vertex 1000.000000 -27.500000 4.000000
    endloop
  endfacet
  facet normal 0 0 0
    outer loop
      vertex -1000.000000 -27.500000 -4.000000
      vertex 1000.000000 -27.500000 4.000000
      vertex 1000.000000 -27.500000 -4.000000
    endloop
  endfacet
  facet normal 0 0 0
    outer loop
      vertex 1000.000000 -27.500000 -4.000000
      vertex 1000.000000 -27.500000 4.000000
      vertex 1000.000000 27.500000 4.000000
    endloop
  endfacet
  facet normal 0 0 0
    outer loop
      vertex 1000.000000 -27.500000 -4.000000
      vertex 1000.000000 27.500000 4.000000
      vertex 1000.000000 27.500000 -4.000000
    endloop
  endfacet
  facet normal 0 0 0
    outer loop
      vertex 1000.000000 27.500000 -4.000000
      vertex 1000.000000 27.500000 4.000000
      vertex -1000.000000 27.500000 4.000000
    endloop
  endfacet
  facet normal 0 0 0
    outer loop
      vertex 1000.000000 27.500000 -4.000000
      vertex -1000.000000 27.500000 4.000000
      vertex -1000.000000 27.500000 -4.000000
    endloop
  endfacet
  facet normal 0 0 0
    outer loop
      vertex -1000.000000 27.500000 -4.000000
      vertex -1000.000000 27.500000 4.000000
      vertex -1000.000000 -27.500000 4.000000
    endloop
  endfacet
  facet normal 0 0 0
    outer loop
      vertex -1000.000000 27.500000 -4.000000
      vertex -1000.000000 -27.500000 4.000000
      vertex -1000.000000 -27.500000 -4.000000
    endloop
  endfacet
endsolid box
