solid box
  facet normal 0 0 0
    outer loop
      vertex -35.000000 -430.000000 -8.000000
      vertex 35.000000 -430.000000 -8.000000
      vertex 35.000000 430.000000 -8.000000
    endloop
  endfacet
  facet normal 0 0 0
    outer loop
      vertex -35.000000 -430.000000 -8.000000
      vertex 35.000000 430.000000 -8.000000
      vertex -35.000000 430.000000 -8.000000
    endloop
  endfacet
  facet normal 0 0 0
    outer loop
      vertex -35.000000 -430.000000 8.000000
      vertex 35.000000 430.000000 8.000000
      vertex 35.000000 -430.000000 8.000000
    endloop
  endfacet
  facet normal 0 0 0
    outer loop
      vertex -35.000000 -430.000000 8.000000
      vertex -35.000000 430.000000 8.000000
      vertex 35.000000 430.000000 8.000000
    endloop
  endfacet
  facet normal 0 0 0
    outer loop
      vertex -35.000000 -430.000000 -8.000000
      vertex -35.000000 -430.000000 8.000000
      vertex 35.000000 -430.000000 8.000000
    endloop
  endfacet
  facet normal 0 0 0
    outer loop
      vertex -35.000000 -430.000000 -8.000000
      vertex 35.000000 -430.000000 8.000000
      vertex 35.000000 -430.000000 -8.000000
    endloop
  endfacet
  facet normal 0 0 0
    outer loop
      vertex 35.000000 -430.000000 -8.000000
      vertex 35.000000 -430.000000 8.000000
      vertex 35.000000 430.000000 8.000000
    endloop
  endfacet
  facet normal 0 0 0
    outer loop
      vertex 35.000000 -430.000000 -8.000000
      vertex 35.000000 430.000000 8.000000
      vertex 35.000000 430.000000 -8.000000
    endloop
  endfacet
  facet normal 0 0 0
    outer loop
      vertex 35.000000 430.000000 -8.000000
      vertex 35.000000 430.000000 8.000000
      vertex -35.000000 430.000000 8.000000
    endloop
  endfacet
  facet normal 0 0 0
    outer loop
      vertex 35.000000 430.000000 -8.000000
      vertex -35.000000 430.000000 8.000000
      vertex -35.000000 430.000000 -8.000000
    endloop
  endfacet
  facet normal 0 0 0
    outer loop
      vertex -35.000000 430.000000 -8.000000
      vertex -35.000000 430.000000 8.000000
      vertex -35.000000 -430.000000 8.000000
    endloop
  endfacet
  facet normal 0 0 0
    outer loop
      vertex -35.000000 430.000000 -8.000000
      vertex -35.000000 -430.000000 8.000000
      vertex -35.000000 -430.000000 -8.000000
    endloop
  endfacet
endsolid box
