solid box
  facet normal 0 0 0
    outer loop
      vertex -12.000000 -105.000000 -62.500000
      vertex 12.000000 -105.000000 -62.500000
      vertex 12.000000 105.000000 -62.500000
    endloop
  endfacet
  facet normal 0 0 0
    outer loop
      vertex -12.000000 -105.000000 -62.500000
      vertex 12.000000 105.000000 -62.500000
      vertex -12.000000 105.000000 -62.500000
    endloop
  endfacet
  facet normal 0 0 0
    outer loop
      vertex -12.000000 -105.000000 62.500000
      vertex 12.000000 105.000000 62.500000
      vertex 12.000000 -105.000000 62.500000
    endloop
  endfacet
  facet normal 0 0 0
    outer loop
      vertex -12.000000 -105.000000 62.500000
      vertex -12.000000 105.000000 62.500000
      vertex 12.000000 105.000000 62.500000
    endloop
  endfacet
  facet normal 0 0 0
    outer loop
      vertex -12.000000 -105.000000 -62.500000
      vertex -12.000000 -105.000000 62.500000
      vertex 12.000000 -105.000000 62.500000
    endloop
  endfacet
  facet normal 0 0 0
    outer loop
      vertex -12.000000 -105.000000 -62.500000
      vertex 12.000000 -105.000000 62.500000
      vertex 12.000000 -105.000000 -62.500000
    endloop
  endfacet
  facet normal 0 0 0
    outer loop
      vertex 12.000000 -105.000000 -62.500000
      vertex 12.000000 -105.000000 62.500000
      vertex 12.000000 105.000000 62.500000
    endloop
  endfacet
  facet normal 0 0 0
    outer loop
      vertex 12.000000 -105.000000 -62.500000
      vertex 12.000000 105.000000 62.500000
      vertex 12.000000 105.000000 -62.500000
    endloop
  endfacet
  facet normal 0 0 0
    outer loop
      vertex 12.000000 105.000000 -62.500000
      vertex 12.000000 105.000000 62.500000
      vertex -12.000000 105.000000 62.500000
    endloop
  endfacet
  facet normal 0 0 0
    outer loop
      vertex 12.000000 105.000000 -62.500000
      vertex -12.000000 105.000000 62.500000
      vertex -12.000000 105.000000 -62.500000
    endloop
  endfacet
  facet normal 0 0 0
    outer loop
      vertex -12.000000 105.000000 -62.500000
      vertex -12.000000 105.000000 62.500000
      vertex -12.000000 -105.000000 62.500000
    endloop
  endfacet
  facet normal 0 0 0
    outer loop
      vertex -12.000000 105.000000 -62.500000
      vertex -12.000000 -105.000000 62.500000
      vertex -12.000000 -105.000000 -62.500000
    endloop
  endfacet
endsolid box
