solid box
  facet normal 0 0 0
    outer loop
      vertex -310.000000 -210.000000 -110.000000
      vertex 310.000000 -210.000000 -110.000000
      vertex 310.000000 210.000000 -110.000000
    endloop
  endfacet
  facet normal 0 0 0
    outer loop
      vertex -310.000000 -210.000000 -110.000000
      vertex 310.000000 210.000000 -110.000000
      vertex -310.000000 210.000000 -110.000000
    endloop
  endfacet
  facet normal 0 0 0
    outer loop
      vertex -310.000000 -210.000000 110.000000
      vertex 310.000000 210.000000 110.000000
      vertex 310.000000 -210.000000 110.000000
    endloop
  endfacet
  facet normal 0 0 0
    outer loop
      vertex -310.000000 -210.000000 110.000000
      vertex -310.000000 210.000000 110.000000
      vertex 310.000000 210.000000 110.000000
    endloop
  endfacet
  facet normal 0 0 0
    outer loop
      vertex -310.000000 -210.000000 -110.000000
      vertex -310.000000 -210.000000 110.000000
      vertex 310.000000 -210.000000 110.000000
    endloop
  endfacet
  facet normal 0 0 0
    outer loop
      vertex -310.000000 -210.000000 -110.000000
      vertex 310.000000 -210.000000 110.000000
      vertex 310.000000 -210.000000 -110.000000
    endloop
  endfacet
  facet normal 0 0 0
    outer loop
      vertex 310.000000 -210.000000 -110.000000
      vertex 310.000000 -210.000000 110.000000
      vertex 310.000000 210.000000 110.000000
    endloop
  endfacet
  facet normal 0 0 0
    outer loop
      vertex 310.000000 -210.000000 -110.000000
      vertex 310.000000 210.000000 110.000000
      vertex 310.000000 210.000000 -110.000000
    endloop
  endfacet
  facet normal 0 0 0
    outer loop
      vertex 310.000000 210.000000 -110.000000
      vertex 310.000000 210.000000 110.000000
      vertex -310.000000 210.000000 110.000000
    endloop
  endfacet
  facet normal 0 0 0
    outer loop
      vertex 310.000000 210.000000 -110.000000
      vertex -310.000000 210.000000 110.000000
      vertex -310.000000 210.000000 -110.000000
    endloop
  endfacet
  facet normal 0 0 0
    outer loop
      vertex -310.000000 210.000000 -110.000000
      vertex -310.000000 210.000000 110.000000
      vertex -310.000000 -210.000000 110.000000
    endloop
  endfacet
  facet normal 0 0 0
    outer loop
      vertex -310.000000 210.000000 -110.000000
      vertex -310.000000 -210.000000 110.000000
      vertex -310.000000 -210.000000 -110.000000
    endloop
  endfacet
endsolid box
