solid box
  facet normal 0 0 0
    outer loop
      vertex -425.000000 -295.000000 -30.000000
      vertex 425.000000 -295.000000 -30.000000
      vertex 425.000000 295.000000 -30.000000
    endloop
  endfacet
  facet normal 0 0 0
    outer loop
      vertex -425.000000 -295.000000 -30.000000
      vertex 425.000000 295.000000 -30.000000
      vertex -425.000000 295.000000 -30.000000
    endloop
  endfacet
  facet normal 0 0 0
    outer loop
      vertex -425.000000 -295.000000 30.000000
      vertex 425.000000 295.000000 30.000000
      vertex 425.000000 -295.000000 30.000000
    endloop
  endfacet
  facet normal 0 0 0
    outer loop
      vertex -425.000000 -295.000000 30.000000
      vertex -425.000000 295.000000 30.000000
      vertex 425.000000 295.000000 30.000000
    endloop
  endfacet
  facet normal 0 0 0
    outer loop
      vertex -425.000000 -295.000000 -30.000000
      vertex -425.000000 -295.000000 30.000000
      vertex 425.000000 -295.000000 30.000000
    endloop
  endfacet
  facet normal 0 0 0
    outer loop
      vertex -425.000000 -295.000000 -30.000000
      vertex 425.000000 -295.000000 30.000000
      vertex 425.000000 -295.000000 -30.000000
    endloop
  endfacet
  facet normal 0 0 0
    outer loop
      vertex 425.000000 -295.000000 -30.000000
      vertex 425.000000 -295.000000 30.000000
      vertex 425.000000 295.000000 30.000000
    endloop
  endfacet
  facet normal 0 0 0
    outer loop
      vertex 425.000000 -295.000000 -30.000000
      vertex 425.000000 295.000000 30.000000
      vertex 425.000000 295.000000 -30.000000
    endloop
  endfacet
  facet normal 0 0 0
    outer loop
      vertex 425.000000 295.000000 -30.000000
      vertex 425.000000 295.000000 30.000000
      vertex -425.000000 295.000000 30.000000
    endloop
  endfacet
  facet normal 0 0 0
    outer loop
      vertex 425.000000 295.000000 -30.000000
      vertex -425.000000 295.000000 30.000000
      vertex -425.000000 295.000000 -30.000000
    endloop
  endfacet
  facet normal 0 0 0
    outer loop
      vertex -425.000000 295.000000 -30.000000
      vertex -425.000000 295.000000 30.000000
      vertex -425.000000 -295.000000 30.000000
    endloop
  endfacet
  facet normal 0 0 0
    outer loop
      vertex -425.000000 295.000000 -30.000000
      vertex -425.000000 -295.000000 30.000000
      vertex -425.000000 -295.000000 -30.000000
    endloop
  endfacet
endsolid box
