solid box
  facet normal 0 0 0
    outer loop
      vertex -265.000000 -14.000000 -11.000000
      vertex 265.000000 -14.000000 -11.000000
      vertex 265.000000 14.000000 -11.000000
    endloop
  endfacet
  facet normal 0 0 0
    outer loop
      vertex -265.000000 -14.000000 -11.000000
      vertex 265.000000 14.000000 -11.000000
      vertex -265.000000 14.000000 -11.000000
    endloop
  endfacet
  facet normal 0 0 0
    outer loop
      vertex -265.000000 -14.000000 11.000000
      vertex 265.000000 14.000000 11.000000
      vertex 265.000000 -14.000000 11.000000
    endloop
  endfacet
  facet normal 0 0 0
    outer loop
      vertex -265.000000 -14.000000 11.000000
      vertex -265.000000 14.000000 11.000000
      vertex 265.000000 14.000000 11.000000
    endloop
  endfacet
  facet normal 0 0 0
    outer loop
      vertex -265.000000 -14.000000 -11.000000
      vertex -265.000000 -14.000000 11.000000
      vertex 265.000000 -14.000000 11.000000
    endloop
  endfacet
  facet normal 0 0 0
    outer loop
      vertex -265.000000 -14.000000 -11.000000
      vertex 265.000000 -14.000000 11.000000
      vertex 265.000000 -14.000000 -11.000000
    endloop
  endfacet
  facet normal 0 0 0
    outer loop
      vertex 265.000000 -14.000000 -11.000000
      vertex 265.000000 -14.000000 11.000000
      vertex 265.000000 14.000000 11.000000
    endloop
  endfacet
  facet normal 0 0 0
    outer loop
      vertex 265.000000 -14.000000 -11.000000
      vertex 265.000000 14.000000 11.000000
      vertex 265.000000 14.000000 -11.000000
    endloop
  endfacet
  facet normal 0 0 0
    outer loop
      vertex 265.000000 14.000000 -11.000000
      vertex 265.000000 14.000000 11.000000
      vertex -265.000000 14.000000 11.000000
    endloop
  endfacet
  facet normal 0 0 0
    outer loop
      vertex 265.000000 14.000000 -11.000000
      vertex -265.000000 14.000000 11.000000
      vertex -265.000000 14.000000 -11.000000
    endloop
  endfacet
  facet normal 0 0 0
    outer loop
      vertex -265.000000 14.000000 -11.000000
      vertex -265.000000 14.000000 11.000000
      vertex -265.000000 -14.000000 11.000000
    endloop
  endfacet
  facet normal 0 0 0
    outer loop
      vertex -265.000000 14.000000 -11.000000
      vertex -265.000000 -14.000000 11.000000
      vertex -265.000000 -14.000000 -11.000000
    endloop
  endfacet
endsolid box
