solid box
  facet normal 0 0 0
    outer loop
      vertex -46.000000 -29.000000 -29.000000
      vertex 46.000000 -29.000000 -29.000000
      vertex 46.000000 29.000000 -29.000000
    endloop
  endfacet
  facet normal 0 0 0
    outer loop
      vertex -46.000000 -29.000000 -29.000000
      vertex 46.000000 29.000000 -29.000000
      vertex -46.000000 29.000000 -29.000000
    endloop
  endfacet
  facet normal 0 0 0
    outer loop
      vertex -46.000000 -29.000000 29.000000
      vertex 46.000000 29.000000 29.000000
      vertex 46.000000 -29.000000 29.000000
    endloop
  endfacet
  facet normal 0 0 0
    outer loop
      vertex -46.000000 -29.000000 29.000000
      vertex -46.000000 29.000000 29.000000
      vertex 46.000000 29.000000 29.000000
    endloop
  endfacet
  facet normal 0 0 0
    outer loop
      vertex -46.000000 -29.000000 -29.000000
      vertex -46.000000 -29.000000 29.000000
      vertex 46.000000 -29.000000 29.000000
    endloop
  endfacet
  facet normal 0 0 0
    outer loop
      vertex -46.000000 -29.000000 -29.000000
      vertex 46.000000 -29.000000 29.000000
      vertex 46.000000 -29.000000 -29.000000
    endloop
  endfacet
  facet normal 0 0 0
    outer loop
      vertex 46.000000 -29.000000 -29.000000
      vertex 46.000000 -29.000000 29.000000
      vertex 46.000000 29.000000 29.000000
    endloop
  endfacet
  facet normal 0 0 0
    outer loop
      vertex 46.000000 -29.000000 -29.000000
      vertex 46.000000 29.000000 29.000000
      vertex 46.000000 29.000000 -29.000000
    endloop
  endfacet
  facet normal 0 0 0
    outer loop
      vertex 46.000000 29.000000 -29.000000
      vertex 46.000000 29.000000 29.000000
      vertex -46.000000 29.000000 29.000000
    endloop
  endfacet
  facet normal 0 0 0
    outer loop
      vertex 46.000000 29.000000 -29.000000
      vertex -46.000000 29.000000 29.000000
      vertex -46.000000 29.000000 -29.000000
    endloop
  endfacet
  facet normal 0 0 0
    outer loop
      vertex -46.000000 29.000000 -29.000000
      vertex -46.000000 29.000000 29.000000
      vertex -46.000000 -29.000000 29.000000
    endloop
  endfacet
  facet normal 0 0 0
    outer loop
      vertex -46.000000 29.000000 -29.000000
      vertex -46.000000 -29.000000 29.000000
      vertex -46.000000 -29.000000 -29.000000
    endloop
  endfacet
endsolid box
