solid box
  facet normal 0 0 0
    outer loop
      vertex -3100.000000 -2275.000000 -12.000000
      vertex 3100.000000 -2275.000000 -12.000000
      vertex 3100.000000 2275.000000 -12.000000
    endloop
  endfacet
  facet normal 0 0 0
    outer loop
      vertex -3100.000000 -2275.000000 -12.000000
      vertex 3100.000000 2275.000000 -12.000000
      vertex -3100.000000 2275.000000 -12.000000
    endloop
  endfacet
  facet normal 0 0 0
    outer loop
      vertex -3100.000000 -2275.000000 12.000000
      vertex 3100.000000 2275.000000 12.000000
      vertex 3100.000000 -2275.000000 12.000000
    endloop
  endfacet
  facet normal 0 0 0
    outer loop
      vertex -3100.000000 -2275.000000 12.000000
      vertex -3100.000000 2275.000000 12.000000
      vertex 3100.000000 2275.000000 12.000000
    endloop
  endfacet
  facet normal 0 0 0
    outer loop
      vertex -3100.000000 -2275.000000 -12.000000
      vertex -3100.000000 -2275.000000 12.000000
      vertex 3100.000000 -2275.000000 12.000000
    endloop
  endfacet
  facet normal 0 0 0
    outer loop
      vertex -3100.000000 -2275.000000 -12.000000
      vertex 3100.000000 -2275.000000 12.000000
      vertex 3100.000000 -2275.000000 -12.000000
    endloop
  endfacet
  facet normal 0 0 0
    outer loop
      vertex 3100.000000 -2275.000000 -12.000000
      vertex 3100.000000 -2275.000000 12.000000
      vertex 3100.000000 2275.000000 12.000000
    endloop
  endfacet
  facet normal 0 0 0
    outer loop
      vertex 3100.000000 -2275.000000 -12.000000
      vertex 3100.000000 2275.000000 12.000000
      vertex 3100.000000 2275.000000 -12.000000
    endloop
  endfacet
  facet normal 0 0 0
    outer loop
      vertex 3100.000000 2275.000000 -12.000000
      vertex 3100.000000 2275.000000 12.000000
      vertex -3100.000000 2275.000000 12.000000
    endloop
  endfacet
  facet normal 0 0 0
    outer loop
      vertex 3100.000000 2275.000000 -12.000000
      vertex -3100.000000 2275.000000 12.000000
      vertex -3100.000000 2275.000000 -12.000000
    endloop
  endfacet
  facet normal 0 0 0
    outer loop
      vertex -3100.000000 2275.000000 -12.000000
      vertex -3100.000000 2275.000000 12.000000
      vertex -3100.000000 -2275.000000 12.000000
    endloop
  endfacet
  facet normal 0 0 0
    outer loop
      vertex -3100.000000 2275.000000 -12.000000
      vertex -3100.000000 -2275.000000 12.000000
      vertex -3100.000000 -2275.000000 -12.000000
    endloop
  endfacet
endsolid box
