solid box
  facet normal 0 0 0
    outer loop
      vertex -340.000000 -240.000000 -27.500000
      vertex 340.000000 -240.000000 -27.500000
      vertex 340.000000 240.000000 -27.500000
    endloop
  endfacet
  facet normal 0 0 0
    outer loop
      vertex -340.000000 -240.000000 -27.500000
      vertex 340.000000 240.000000 -27.500000
      vertex -340.000000 240.000000 -27.500000
    endloop
  endfacet
  facet normal 0 0 0
    outer loop
      vertex -340.000000 -240.000000 27.500000
      vertex 340.000000 240.000000 27.500000
      vertex 340.000000 -240.000000 27.500000
    endloop
  endfacet
  facet normal 0 0 0
    outer loop
      vertex -340.000000 -240.000000 27.500000
      vertex -340.000000 240.000000 27.500000
      vertex 340.000000 240.000000 27.500000
    endloop
  endfacet
  facet normal 0 0 0
    outer loop
      vertex -340.000000 -240.000000 -27.500000
      vertex -340.000000 -240.000000 27.500000
      vertex 340.000000 -240.000000 27.500000
    endloop
  endfacet
  facet normal 0 0 0
    outer loop
      vertex -340.000000 -240.000000 -27.500000
      vertex 340.000000 -240.000000 27.500000
      vertex 340.000000 -240.000000 -27.500000
    endloop
  endfacet
  facet normal 0 0 0
    outer loop
      vertex 340.000000 -240.000000 -27.500000
      vertex 340.000000 -240.000000 27.500000
      vertex 340.000000 240.000000 27.500000
    endloop
  endfacet
  facet normal 0 0 0
    outer loop
      vertex 340.000000 -240.000000 -27.500000
      vertex 340.000000 240.000000 27.500000
      vertex 340.000000 240.000000 -27.500000
    endloop
  endfacet
  facet normal 0 0 0
    outer loop
      vertex 340.000000 240.000000 -27.500000
      vertex 340.000000 240.000000 27.500000
      vertex -340.000000 240.000000 27.500000
    endloop
  endfacet
  facet normal 0 0 0
    outer loop
      vertex 340.000000 240.000000 -27.500000
      vertex -340.000000 240.000000 27.500000
      vertex -340.000000 240.000000 -27.500000
    endloop
  endfacet
  facet normal 0 0 0
    outer loop
      vertex -340.000000 240.000000 -27.500000
      vertex -340.000000 240.000000 27.500000
      vertex -340.000000 -240.000000 27.500000
    endloop
  endfacet
  facet normal 0 0 0
    outer loop
      vertex -340.000000 240.000000 -27.500000
      vertex -340.000000 -240.000000 27.500000
      vertex -340.000000 -240.000000 -27.500000
    endloop
  endfacet
endsolid box
