solid box
  facet normal 0 0 0
    outer loop
      vertex -135.000000 -60.000000 -7.000000
      vertex 135.000000 -60.000000 -7.000000
      vertex 135.000000 60.000000 -7.000000
    endloop
  endfacet
  facet normal 0 0 0
    outer loop
      vertex -135.000000 -60.000000 -7.000000
      vertex 135.000000 60.000000 -7.000000
      vertex -135.000000 60.000000 -7.000000
    endloop
  endfacet
  facet normal 0 0 0
    outer loop
      vertex -135.000000 -60.000000 7.000000
      vertex 135.000000 60.000000 7.000000
      vertex 135.000000 -60.000000 7.000000
    endloop
  endfacet
  facet normal 0 0 0
    outer loop
      vertex -135.000000 -60.000000 7.000000
      vertex -135.000000 60.000000 7.000000
      vertex 135.000000 60.000000 7.000000
    endloop
  endfacet
  facet normal 0 0 0
    outer loop
      vertex -135.000000 -60.000000 -7.000000
      vertex -135.000000 -60.000000 7.000000
      vertex 135.000000 -60.000000 7.000000
    endloop
  endfacet
  facet normal 0 0 0
    outer loop
      vertex -135.000000 -60.000000 -7.000000
      vertex 135.000000 -60.000000 7.000000
      vertex 135.000000 -60.000000 -7.000000
    endloop
  endfacet
  facet normal 0 0 0
    outer loop
      vertex 135.000000 -60.000000 -7.000000
      vertex 135.000000 -60.000000 7.000000
      vertex 135.000000 60.000000 7.000000
    endloop
  endfacet
  facet normal 0 0 0
    outer loop
      vertex 135.000000 -60.000000 -7.000000
      vertex 135.000000 60.000000 7.000000
      vertex 135.000000 60.000000 -7.000000
    endloop
  endfacet
  facet normal 0 0 0
    outer loop
      vertex 135.000000 60.000000 -7.000000
      vertex 135.000000 60.000000 7.000000
      vertex -135.000000 60.000000 7.000000
    endloop
  endfacet
  facet normal 0 0 0
    outer loop
      vertex 135.000000 60.000000 -7.000000
      vertex -135.000000 60.000000 7.000000
      vertex -135.000000 60.000000 -7.000000
    endloop
  endfacet
  facet normal 0 0 0
    outer loop
      vertex -135.000000 60.000000 -7.000000
      vertex -135.000000 60.000000 7.000000
      vertex -135.000000 -60.000000 7.000000
    endloop
  endfacet
  facet normal 0 0 0
    outer loop
      vertex -135.000000 60.000000 -7.000000
      vertex -135.000000 -60.000000 7.000000
      vertex -135.000000 -60.000000 -7.000000
    endloop
  endfacet
endsolid box
